<svg id="visual" viewBox="0 0 900 600" width="900" height="600" xmlns="http://www.w3.org/2000/svg" xmlns:xlink="http://www.w3.org/1999/xlink" version="1.1"><rect x="0" y="0" width="900" height="600" fill="#f0fbfe"></rect><path d="M0 92L21.5 106.7C43 121.3 86 150.7 128.8 169.7C171.7 188.7 214.3 197.3 257.2 194C300 190.7 343 175.3 385.8 164.8C428.7 154.3 471.3 148.7 514.2 145.7C557 142.7 600 142.3 642.8 134C685.7 125.7 728.3 109.3 771.2 121.8C814 134.3 857 175.7 878.5 196.3L900 217L900 0L878.5 0C857 0 814 0 771.2 0C728.3 0 685.7 0 642.8 0C600 0 557 0 514.2 0C471.3 0 428.7 0 385.8 0C343 0 300 0 257.2 0C214.3 0 171.7 0 128.8 0C86 0 43 0 21.5 0L0 0Z" fill="#6ed7f7" stroke-linecap="round" stroke-linejoin="miter"></path></svg>